# xmcd
#
# Track frame offsets:
#	150
#	21977
#	42160
#	62082
#	81060
#	95970
#	124072
#	145775
#	173265
#	197035
#	221577
#	262787
#	285680
#
# Disc length: 4083
#
# Revision: 1
# Processed by: cddbd v1.5.1PL0 Copyright (c) Steve Scherf et al.
# Submitted via: CDex 1.51
# Normalized: r0:TDELIM( - )
#
DISCID=b50ff10d
DTITLE=Jazz and Tzaz - 116 - Women in Blue
DYEAR=2002
DGENRE=Jazz
TTITLE0=Mary Stallings - Surrey With The Fringe On Top
TTITLE1=Karrin Allyson - O Barquinho (My Little Boat)
TTITLE2=Rosemary Clooney - Sentimental Journey
TTITLE3=Marlena Shaw - The Nearness Of You
TTITLE4=Monica Mancini - It Had Better Be Tonight (Meglio Stasera)
TTITLE5=Ernestine Anderson - One Mint Julep
TTITLE6=Nnenna Freelon - Let It Be Me
TTITLE7=Betty Buckley - Fire And Rain
TTITLE8=Jeannie and Jimmy Cheatham - How Long Blues
TTITLE9=Susannah McCorkle - You'd Be So Nice To Come Home To
TTITLE10=Carol Sloane - One For My Baby (And One More For The Road)
TTITLE11=Carmen McRae with George Shearing - Too Late Now
TTITLE12=Diane Schuur - I Just Called To Say I Love You (Live)
EXTD=YEAR: 2002
EXTT0=
EXTT1=
EXTT2=
EXTT3=
EXTT4=
EXTT5=
EXTT6=
EXTT7=
EXTT8=
EXTT9=
EXTT10=
EXTT11=
EXTT12=
PLAYORDER=
